<svg viewBox="0 0 24 24" xmlns="http://www.w3.org/2000/svg" fill="none"><g id="SVGRepo_bgCarrier" stroke-width="0"></g><g id="SVGRepo_tracerCarrier" stroke-linecap="round" stroke-linejoin="round"></g><g id="SVGRepo_iconCarrier"><path fill="#ffffff" fill-rule="evenodd" d="M5 20a3 3 0 0 1-3-3V7a3 3 0 0 1 3-3h14a3 3 0 0 1 3 3v10a3 3 0 0 1-3 3H5zM7.625 8.22a1 1 0 1 0-1.25 1.56l3.75 3.001a3 3 0 0 0 3.75 0l3.75-3a1 1 0 1 0-1.25-1.562l-3.75 3a1 1 0 0 1-1.25 0l-3.75-3z" clip-rule="evenodd"></path></g></svg>